<?xml version="1.0" encoding="utf-8"?>

<svg version="1.1" id="Icons" xmlns="http://www.w3.org/2000/svg" xmlns:xlink="http://www.w3.org/1999/xlink" x="0px" y="0px"
	 viewBox="0 0 32 32" style="enable-background:new 0 0 32 32;" xml:space="preserve">
<g fill="#2F8555">
	<path d="M27,11h-1V7c0,0,0,0,0-0.1c0-0.1,0-0.2-0.1-0.3c0,0,0-0.1,0-0.1c0-0.1-0.1-0.2-0.2-0.3c0,0,0,0,0,0l-6-6c0,0,0,0,0,0
		c0,0,0,0,0,0c0,0,0,0,0,0C19.5,0.1,19.3,0,19,0H7C6.4,0,6,0.4,6,1v10H5c-1.7,0-3,1.3-3,3v6c0,0.6,0.4,1,1,1h3v6c0,0.6,0.4,1,1,1
		s1-0.4,1-1v-6h4v4c0,0.6,0.4,1,1,1s1-0.4,1-1v-4h7v3c0,0.6,0.4,1,1,1s1-0.4,1-1v-3h1v6c0,0.6,0.4,1,1,1s1-0.4,1-1v-6h3
		c0.6,0,1-0.4,1-1v-6C30,12.3,28.7,11,27,11z M22,17h-3c-0.6,0-1-0.4-1-1s0.4-1,1-1h3c0.6,0,1,0.4,1,1S22.6,17,22,17z M8,11V2h10v5
		c0,0.6,0.4,1,1,1h5v3H8z M25.7,16.7C25.5,16.9,25.3,17,25,17c-0.3,0-0.5-0.1-0.7-0.3C24.1,16.5,24,16.3,24,16
		c0-0.3,0.1-0.5,0.3-0.7c0.4-0.4,1-0.4,1.4,0c0.2,0.2,0.3,0.4,0.3,0.7C26,16.3,25.9,16.5,25.7,16.7z"/>
	<path d="M16,22c-0.6,0-1,0.4-1,1v6c0,0.6,0.4,1,1,1s1-0.4,1-1v-6C17,22.4,16.6,22,16,22z"/>
	<path d="M19,26c-0.6,0-1,0.4-1,1v4c0,0.6,0.4,1,1,1s1-0.4,1-1v-4C20,26.4,19.6,26,19,26z"/>
	<path d="M10,24c-0.6,0-1,0.4-1,1v6c0,0.6,0.4,1,1,1s1-0.4,1-1v-6C11,24.4,10.6,24,10,24z"/>
</g>
</svg>
