<?xml version="1.0" encoding="iso-8859-1"?>
<!-- Generator: Adobe Illustrator 19.0.0, SVG Export Plug-In . SVG Version: 6.00 Build 0)  -->
<svg version="1.1" id="Layer_1" xmlns="http://www.w3.org/2000/svg" xmlns:xlink="http://www.w3.org/1999/xlink" x="0px" y="0px"
	 viewBox="0 0 512.002 512.002" style="enable-background:new 0 0 512.002 512.002;" xml:space="preserve">
<g>
	<path style="fill:#969696;" d="M264.183,327.387l-25.891,57.719l-30.029-1.798c-0.604,0.604-1.218,1.186-1.845,1.751
		c20.17-22.048,19.582-56.391-1.751-77.722l31.827-31.827C251.206,290.221,260.435,308.362,264.183,327.387z"/>
	<path style="fill:#969696;" d="M383.313,208.257l-1.003,32.83l-54.927,23.099c-19.025-3.747-37.166-12.978-51.878-27.689
		l31.827-31.827c21.333,21.333,55.674,21.921,77.722,1.751C384.49,207.048,383.91,207.66,383.313,208.257z"/>
</g>
<g>
	<path style="fill:#B9B9B9;" d="M236.493,418.732l-63.655,63.655c-39.482,39.482-103.734,39.49-143.223,0s-39.482-103.742,0-143.223
		l63.655-63.655c39.49-39.49,103.734-39.49,143.223,0l-31.827,31.827c-21.937-21.937-57.632-21.937-79.569,0L61.443,370.99
		c-21.937,21.937-21.937,57.632,0,79.569c21.937,21.937,57.632,21.937,79.569,0l63.655-63.655c0.604-0.604,1.186-1.218,1.751-1.845
		c0.629-0.565,1.241-1.146,1.845-1.751l55.92-55.92C270.501,359.421,261.271,393.953,236.493,418.732z"/>
	<path style="fill:#B9B9B9;" d="M482.384,172.842l-63.655,63.655c-24.777,24.777-59.311,34.008-91.345,27.689l55.929-55.929
		c0.596-0.596,1.178-1.21,1.743-1.838c0.629-0.565,1.241-1.146,1.847-1.751l63.655-63.655c21.937-21.937,21.937-57.632,0-79.569
		c-21.937-21.937-57.632-21.937-79.569,0L307.334,125.1c-21.937,21.937-21.937,57.632,0,79.569l-31.827,31.827
		c-39.49-39.49-39.482-103.742,0-143.223l63.655-63.655c39.49-39.49,103.734-39.49,143.223,0S521.873,133.352,482.384,172.842z"/>
</g>
<path style="fill:#DCDCDC;" d="M359.439,152.561c-8.788-8.788-23.039-8.789-31.827,0l-175.05,175.051
	c-8.788,8.788-8.788,23.039,0,31.827s23.039,8.788,31.827,0l175.05-175.05C368.229,175.6,368.229,161.35,359.439,152.561z"/>
<g>
</g>
<g>
</g>
<g>
</g>
<g>
</g>
<g>
</g>
<g>
</g>
<g>
</g>
<g>
</g>
<g>
</g>
<g>
</g>
<g>
</g>
<g>
</g>
<g>
</g>
<g>
</g>
<g>
</g>
</svg>
